<?xml version="1.0" encoding="UTF-8" standalone="no"?><!DOCTYPE svg PUBLIC "-//W3C//DTD SVG 1.1//EN" "http://www.w3.org/Graphics/SVG/1.1/DTD/svg11.dtd"><svg width="100%" height="100%" viewBox="0 0 120 120" version="1.1" xmlns="http://www.w3.org/2000/svg" xmlns:xlink="http://www.w3.org/1999/xlink" xml:space="preserve" xmlns:serif="http://www.serif.com/" style="fill-rule:evenodd;clip-rule:evenodd;stroke-linejoin:round;stroke-miterlimit:2;"><rect id="Logo" x="0" y="0" width="120" height="120" style="fill:none;"/><g id="Logo1" serif:id="Logo"><path id="Petal:-Blue" serif:id="Petal: Blue" d="M98.971,6.164c2.429,-5.628 9.484,-8.01 14.905,-4.557c5.695,3.618 5.625,9.84 2.302,16.569c-4.671,9.458 -15.786,19.941 -24.192,24.649c-1.154,0.647 -2.306,1.296 -3.507,1.869c-5.59,2.661 -11.391,4.377 -17.222,5.217c-5.05,0.726 -10.114,0.731 -15.09,0.182l-0.768,-0.086l-0.113,-0.764c-0.822,-5.569 -2.463,-11.108 -5.009,-16.448c-0.584,-1.229 -1.246,-2.409 -1.911,-3.586l-1.31,-2.319l2.514,0.882c8.633,3.029 18.298,3.058 27.338,-0.442c0.923,-0.358 1.849,-0.712 2.758,-1.146c8.657,-4.119 15.512,-11.23 19.305,-20.02Zm14.865,92.807c5.628,2.429 8.01,9.484 4.557,14.905c-3.618,5.695 -9.84,5.625 -16.569,2.302c-9.458,-4.671 -19.941,-15.786 -24.649,-24.192c-0.647,-1.154 -1.296,-2.306 -1.869,-3.507c-2.661,-5.59 -4.377,-11.391 -5.217,-17.222c-0.726,-5.05 -0.731,-10.114 -0.182,-15.09l0.086,-0.768l0.764,-0.113c5.569,-0.822 11.108,-2.463 16.448,-5.009c1.229,-0.584 2.409,-1.246 3.586,-1.911l2.319,-1.31l-0.882,2.514c-3.029,8.633 -3.058,18.298 0.442,27.338c0.358,0.923 0.712,1.849 1.146,2.758c4.119,8.657 11.23,15.512 20.02,19.305Zm-92.807,14.865c-2.429,5.628 -9.484,8.01 -14.905,4.557c-5.695,-3.618 -5.625,-9.84 -2.302,-16.569c4.671,-9.458 15.786,-19.941 24.192,-24.649c1.154,-0.647 2.306,-1.296 3.507,-1.869c5.59,-2.661 11.391,-4.377 17.222,-5.217c5.05,-0.726 10.114,-0.731 15.09,-0.182l0.768,0.086l0.113,0.764c0.822,5.569 2.463,11.108 5.009,16.448c0.584,1.229 1.246,2.409 1.911,3.586l1.31,2.319l-2.514,-0.882c-8.633,-3.029 -18.298,-3.058 -27.338,0.442c-0.923,0.358 -1.849,0.712 -2.758,1.146c-8.657,4.119 -15.512,11.23 -19.305,20.02Zm-14.865,-92.807c-5.628,-2.429 -8.01,-9.484 -4.557,-14.905c3.618,-5.695 9.84,-5.625 16.569,-2.302c9.458,4.671 19.941,15.786 24.649,24.192c0.647,1.154 1.296,2.306 1.869,3.507c2.661,5.59 4.377,11.391 5.217,17.222c0.726,5.05 0.731,10.114 0.182,15.09l-0.086,0.768l-0.764,0.113c-5.569,0.822 -11.108,2.463 -16.448,5.009c-1.229,0.584 -2.409,1.246 -3.586,1.911l-2.319,1.31l0.882,-2.514c3.029,-8.633 3.058,-18.298 -0.442,-27.338c-0.358,-0.923 -0.712,-1.849 -1.146,-2.758c-4.119,-8.657 -11.23,-15.512 -20.02,-19.305Z" style="fill:#fff;"/></g></svg>