<?xml version="1.0" encoding="UTF-8" standalone="no"?><!DOCTYPE svg PUBLIC "-//W3C//DTD SVG 1.1//EN" "http://www.w3.org/Graphics/SVG/1.1/DTD/svg11.dtd"><svg width="100%" height="100%" viewBox="0 0 120 120" version="1.1" xmlns="http://www.w3.org/2000/svg" xmlns:xlink="http://www.w3.org/1999/xlink" xml:space="preserve" xmlns:serif="http://www.serif.com/" style="fill-rule:evenodd;clip-rule:evenodd;stroke-linejoin:round;stroke-miterlimit:2;"><rect id="Logo" x="0" y="0" width="120" height="120" style="fill:none;"/><g id="Logo1" serif:id="Logo"><path id="Petal:-Blue" serif:id="Petal: Blue" d="M98.922,6.232c2.426,-5.621 9.472,-8 14.886,-4.551c5.688,3.613 5.618,9.827 2.299,16.548c-4.665,9.446 -15.766,19.916 -24.161,24.618c-1.153,0.646 -2.303,1.294 -3.503,1.866l-0,0c-5.583,2.658 -11.377,4.372 -17.2,5.211c-5.044,0.725 -10.101,0.73 -15.071,0.181l-0.767,-0.085l-0.113,-0.763c-0.821,-5.562 -2.46,-11.094 -5.003,-16.428l-0,-0c-0.583,-1.227 -1.244,-2.406 -1.908,-3.581l-1.309,-2.316l2.511,0.881c8.622,3.025 18.275,3.054 27.304,-0.442c0.922,-0.357 1.846,-0.711 2.754,-1.144l0,0c8.646,-4.114 15.493,-11.216 19.281,-19.995Zm14.846,92.69c5.621,2.426 8,9.472 4.551,14.886c-3.613,5.688 -9.827,5.618 -16.548,2.299c-9.446,-4.665 -19.916,-15.766 -24.618,-24.161c-0.646,-1.153 -1.294,-2.303 -1.866,-3.503l-0,-0c-2.658,-5.583 -4.372,-11.377 -5.211,-17.2c-0.725,-5.044 -0.73,-10.101 -0.181,-15.071l0.085,-0.767l0.763,-0.113c5.562,-0.821 11.094,-2.46 16.428,-5.003l0,-0c1.227,-0.583 2.406,-1.244 3.581,-1.908l2.316,-1.309l-0.881,2.511c-3.025,8.622 -3.054,18.275 0.442,27.304c0.357,0.922 0.711,1.846 1.144,2.754l-0,0c4.114,8.646 11.216,15.493 19.995,19.281Zm-92.69,14.846c-2.426,5.621 -9.472,8 -14.886,4.551c-5.688,-3.613 -5.618,-9.827 -2.299,-16.548c4.665,-9.446 15.766,-19.916 24.161,-24.618c1.153,-0.646 2.303,-1.294 3.503,-1.866l0,-0c5.583,-2.658 11.377,-4.372 17.2,-5.211c5.044,-0.725 10.101,-0.73 15.071,-0.181l0.767,0.085l0.113,0.763c0.821,5.562 2.46,11.094 5.003,16.428l0,0c0.583,1.227 1.244,2.406 1.908,3.581l1.309,2.316l-2.511,-0.881c-8.622,-3.025 -18.275,-3.054 -27.304,0.442c-0.922,0.357 -1.846,0.711 -2.754,1.144l-0,-0c-8.646,4.114 -15.493,11.216 -19.281,19.995Zm-14.846,-92.69c-5.621,-2.426 -8,-9.472 -4.551,-14.886c3.613,-5.688 9.827,-5.618 16.548,-2.299c9.446,4.665 19.916,15.766 24.618,24.161c0.646,1.153 1.294,2.303 1.866,3.503l0,0c2.658,5.583 4.372,11.377 5.211,17.2c0.725,5.044 0.73,10.101 0.181,15.071l-0.085,0.767l-0.763,0.113c-5.562,0.821 -11.094,2.46 -16.428,5.003l-0,0c-1.227,0.583 -2.406,1.244 -3.581,1.908l-2.316,1.309l0.881,-2.511c3.025,-8.622 3.054,-18.275 -0.442,-27.304c-0.357,-0.922 -0.711,-1.846 -1.144,-2.754l0,-0c-4.114,-8.646 -11.216,-15.493 -19.995,-19.281Z" style="fill:#fff;"/></g></svg>