<?xml version="1.0" encoding="UTF-8" standalone="no"?><!DOCTYPE svg PUBLIC "-//W3C//DTD SVG 1.1//EN" "http://www.w3.org/Graphics/SVG/1.1/DTD/svg11.dtd"><svg width="100%" height="100%" viewBox="0 0 120 120" version="1.1" xmlns="http://www.w3.org/2000/svg" xmlns:xlink="http://www.w3.org/1999/xlink" xml:space="preserve" xmlns:serif="http://www.serif.com/" style="fill-rule:evenodd;clip-rule:evenodd;stroke-linejoin:round;stroke-miterlimit:2;"><rect id="Logo" x="0" y="0" width="120" height="120" style="fill:none;"/><g id="Logo1" serif:id="Logo"><g id="Flower"><path id="Petal:-Blue" serif:id="Petal: Blue" d="M99.84,6.629c-3.884,9 -10.905,16.283 -19.769,20.501c-0.93,0.444 -1.877,0.807 -2.823,1.174c-9.258,3.584 -19.156,3.554 -27.996,0.452c0.675,1.196 1.347,2.396 1.94,3.644c2.587,5.425 4.254,11.053 5.09,16.711c4.887,0.54 9.859,0.536 14.819,-0.177c5.726,-0.825 11.422,-2.511 16.912,-5.124c1.18,-0.562 2.311,-1.2 3.444,-1.835c13.753,-7.702 34.91,-31.133 21.814,-39.45c-4.885,-3.113 -11.242,-0.968 -13.431,4.104Z" style="fill:#262869;fill-rule:nonzero;"/><path id="Petal:-Red" serif:id="Petal: Red" d="M113.371,99.84c-9,-3.884 -16.283,-10.905 -20.501,-19.769c-0.444,-0.93 -0.807,-1.877 -1.174,-2.823c-3.584,-9.258 -3.554,-19.156 -0.452,-27.996c-1.196,0.675 -2.396,1.347 -3.644,1.94c-5.425,2.587 -11.053,4.254 -16.711,5.09c-0.54,4.887 -0.536,9.859 0.177,14.819c0.825,5.726 2.511,11.422 5.124,16.912c0.562,1.18 1.2,2.311 1.835,3.444c7.702,13.753 31.133,34.91 39.45,21.814c3.113,-4.885 0.968,-11.242 -4.104,-13.431Z" style="fill:#9b1c20;fill-rule:nonzero;"/><path id="Petal:-Yellow" serif:id="Petal: Yellow" d="M20.16,113.371c3.884,-9 10.905,-16.283 19.769,-20.501c0.93,-0.444 1.877,-0.807 2.823,-1.174c9.258,-3.584 19.156,-3.554 27.996,-0.452c-0.675,-1.196 -1.347,-2.396 -1.94,-3.644c-2.587,-5.425 -4.254,-11.053 -5.09,-16.711c-4.887,-0.54 -9.859,-0.536 -14.819,0.177c-5.726,0.825 -11.422,2.511 -16.912,5.124c-1.18,0.562 -2.311,1.2 -3.444,1.835c-13.753,7.702 -34.91,31.133 -21.814,39.45c4.885,3.113 11.242,0.968 13.431,-4.104Z" style="fill:#f99b1c;fill-rule:nonzero;"/><path id="Petal:-Green" serif:id="Petal: Green" d="M6.629,20.16c9,3.884 16.283,10.905 20.501,19.769c0.444,0.93 0.807,1.877 1.174,2.823c3.584,9.258 3.554,19.156 0.452,27.996c1.196,-0.675 2.396,-1.347 3.644,-1.94c5.425,-2.587 11.053,-4.254 16.711,-5.09c0.54,-4.887 0.536,-9.859 -0.177,-14.819c-0.825,-5.726 -2.511,-11.422 -5.124,-16.912c-0.562,-1.18 -1.2,-2.311 -1.835,-3.444c-7.702,-13.753 -31.133,-34.91 -39.45,-21.814c-3.113,4.885 -0.968,11.242 4.104,13.431Z" style="fill:#18783c;fill-rule:nonzero;"/></g></g></svg>