<?xml version="1.0" encoding="UTF-8" standalone="no"?><!DOCTYPE svg PUBLIC "-//W3C//DTD SVG 1.1//EN" "http://www.w3.org/Graphics/SVG/1.1/DTD/svg11.dtd"><svg width="100%" height="100%" viewBox="0 0 376 41" version="1.1" xmlns="http://www.w3.org/2000/svg" xmlns:xlink="http://www.w3.org/1999/xlink" xml:space="preserve" xmlns:serif="http://www.serif.com/" style="fill-rule:evenodd;clip-rule:evenodd;stroke-linejoin:round;stroke-miterlimit:2;"><g><g><rect id="wv-learningcenter-logo" x="0.001" y="0.013" width="375.285" height="40" style="fill:none;"/><g id="wv-learningcenter-logo1" serif:id="wv-learningcenter-logo"><g><path d="M39.612,33.702c-3.209,-1.384 -5.805,-3.887 -7.309,-7.047c-0.158,-0.332 -0.288,-0.67 -0.419,-1.007c-1.277,-3.3 -1.267,-6.829 -0.161,-9.98c-0.426,0.24 -0.854,0.48 -1.299,0.692c-1.934,0.921 -3.94,1.516 -5.957,1.814c-0.193,1.742 -0.192,3.515 0.063,5.283c0.294,2.041 0.895,4.072 1.827,6.029c0.2,0.421 0.428,0.824 0.654,1.228c2.745,4.903 11.098,12.445 14.064,7.776c1.11,-1.741 0.345,-4.008 -1.463,-4.788Z" style="fill:#9b1c20;fill-rule:nonzero;"/><path d="M1.981,6.327c3.209,1.385 5.804,3.887 7.309,7.048c0.158,0.332 0.287,0.669 0.418,1.006c1.278,3.301 1.267,6.83 0.161,9.981c0.426,-0.241 0.854,-0.48 1.299,-0.692c1.934,-0.922 3.941,-1.517 5.957,-1.814c0.193,-1.743 0.192,-3.515 -0.062,-5.283c-0.294,-2.041 -0.895,-4.072 -1.827,-6.03c-0.201,-0.42 -0.428,-0.823 -0.654,-1.228c-2.746,-4.902 -11.099,-12.445 -14.064,-7.776c-1.11,1.741 -0.345,4.008 1.463,4.788Z" style="fill:#18783c;fill-rule:nonzero;"/><path d="M34.067,1.993c-1.385,3.209 -3.888,5.805 -7.048,7.309c-0.332,0.158 -0.669,0.287 -1.006,0.418c-3.301,1.278 -6.83,1.267 -9.981,0.161c0.241,0.427 0.48,0.854 0.691,1.299c0.923,1.934 1.517,3.941 1.815,5.958c1.742,0.192 3.515,0.191 5.283,-0.063c2.041,-0.294 4.072,-0.895 6.029,-1.827c0.421,-0.2 0.824,-0.428 1.228,-0.654c4.903,-2.746 12.446,-11.099 7.777,-14.064c-1.741,-1.11 -4.008,-0.345 -4.788,1.463Z" style="fill:#337bcc;fill-rule:nonzero;"/><path d="M7.52,38.033c1.384,-3.209 3.887,-5.805 7.047,-7.309c0.332,-0.158 0.67,-0.287 1.007,-0.418c3.3,-1.278 6.829,-1.268 9.981,-0.161c-0.241,-0.427 -0.48,-0.854 -0.692,-1.299c-0.922,-1.934 -1.516,-3.941 -1.815,-5.957c-1.742,-0.193 -3.514,-0.192 -5.282,0.062c-2.042,0.294 -4.073,0.895 -6.03,1.827c-0.42,0.2 -0.823,0.428 -1.228,0.654c-4.902,2.746 -12.445,11.099 -7.776,14.064c1.741,1.11 4.007,0.345 4.788,-1.463Z" style="fill:#f99b1c;fill-rule:nonzero;"/></g><g><g><g transform="matrix(1,0,0,0.999998,0,7.21017e-05)"><text x="51.243px" y="29.453px" style="font-family:'AvenirNext-DemiBold', 'Avenir Next', sans-serif;font-weight:600;font-size:29.141px;fill:#fff;">W</text></g><g transform="matrix(1,0,0,0.999998,0,7.21017e-05)"><text x="79.451px" y="29.453px" style="font-family:'AvenirNext-DemiBold', 'Avenir Next', sans-serif;font-weight:600;font-size:29.141px;fill:#fff;">e<tspan x="96.003px " y="29.453px ">a</tspan>ve L</text></g><g transform="matrix(1,0,0,0.999998,0,7.21017e-05)"><text x="165.359px" y="29.453px" style="font-family:'AvenirNext-DemiBold', 'Avenir Next', sans-serif;font-weight:600;font-size:29.141px;fill:#fff;">e<tspan x="181.911px " y="29.453px ">a</tspan>rning C</text></g><g transform="matrix(1,0,0,0.999998,0,7.21017e-05)"><text x="295.909px" y="29.453px" style="font-family:'AvenirNext-DemiBold', 'Avenir Next', sans-serif;font-weight:600;font-size:29.141px;fill:#fff;">enter</text></g></g></g></g></g></g></svg>