<?xml version="1.0" encoding="UTF-8" standalone="no"?>
<!DOCTYPE svg PUBLIC "-//W3C//DTD SVG 1.1//EN" "http://www.w3.org/Graphics/SVG/1.1/DTD/svg11.dtd">
<svg width="100%" height="100%" viewBox="0 0 376 41" version="1.1" xmlns="http://www.w3.org/2000/svg" xmlns:xlink="http://www.w3.org/1999/xlink" xml:space="preserve" xmlns:serif="http://www.serif.com/" style="fill-rule:evenodd;clip-rule:evenodd;stroke-linejoin:round;stroke-miterlimit:2;">
    <g transform="matrix(1,0,0,1,0,-151)">
        <g transform="matrix(0.137871,0,0,0.0328947,-668.377,151.013)">
            <rect id="wv-learningcenter-logo" x="4847.85" y="0" width="2722" height="1216" style="fill:none;"/>
            <g id="wv-learningcenter-logo1" serif:id="wv-learningcenter-logo">
                <g transform="matrix(2.49966,0,0,10.4767,4847.85,-9.781)">
                    <path d="M114.937,98.689C105.626,94.672 98.094,87.409 93.729,78.239C93.27,77.276 92.894,76.297 92.515,75.318C88.807,65.742 88.837,55.503 92.047,46.358C90.81,47.057 89.569,47.752 88.278,48.366C82.666,51.041 76.844,52.766 70.992,53.631C70.433,58.686 70.436,63.829 71.174,68.96C72.027,74.883 73.771,80.776 76.475,86.455C77.056,87.675 77.717,88.845 78.373,90.018C86.34,104.244 110.578,126.129 119.183,112.582C122.403,107.529 120.184,100.953 114.937,98.689Z" style="fill:rgb(155,28,32);fill-rule:nonzero;"/>
                    <path d="M5.745,19.256C15.056,23.273 22.587,30.535 26.953,39.705C27.411,40.668 27.787,41.647 28.166,42.626C31.874,52.202 31.844,62.442 28.634,71.586C29.871,70.887 31.112,70.193 32.403,69.578C38.015,66.903 43.837,65.178 49.689,64.314C50.249,59.258 50.246,54.115 49.507,48.985C48.654,43.062 46.911,37.169 44.207,31.489C43.625,30.269 42.965,29.099 42.308,27.926C34.341,13.7 10.104,-8.185 1.499,5.362C-1.721,10.414 0.498,16.991 5.745,19.256Z" style="fill:rgb(24,120,60);fill-rule:nonzero;"/>
                    <path d="M98.847,6.678C94.83,15.989 87.567,23.522 78.397,27.886C77.435,28.345 76.455,28.721 75.477,29.1C65.9,32.808 55.661,32.777 46.516,29.568C47.215,30.805 47.91,32.046 48.523,33.337C51.199,38.949 52.924,44.771 53.788,50.624C58.844,51.183 63.987,51.179 69.118,50.441C75.041,49.588 80.934,47.844 86.613,45.141C87.833,44.559 89.003,43.899 90.175,43.242C104.402,35.275 126.288,11.037 112.741,2.433C107.688,-0.787 101.112,1.432 98.847,6.678Z" style="fill:rgb(38,40,105);fill-rule:nonzero;"/>
                    <path d="M21.818,111.255C25.835,101.944 33.097,94.412 42.267,90.047C43.23,89.589 44.209,89.213 45.188,88.833C54.764,85.126 65.004,85.156 74.149,88.366C73.449,87.129 72.755,85.888 72.141,84.597C69.466,78.985 67.741,73.163 66.876,67.311C61.82,66.751 56.678,66.754 51.547,67.493C45.624,68.346 39.731,70.089 34.052,72.793C32.832,73.375 31.662,74.035 30.489,74.692C16.263,82.658 -5.622,106.896 7.924,115.501C12.977,118.721 19.553,116.501 21.818,111.255Z" style="fill:rgb(249,155,28);fill-rule:nonzero;"/>
                </g>
                <g transform="matrix(4.22726,0,0,17.7176,3318.62,-17377)">
                    <g transform="matrix(50,0,0,50,991.176,1031.29)">
                    </g>
                    <text x="449.676px" y="1031.29px" style="font-family:'AvenirNext-DemiBold', 'Avenir Next', sans-serif;font-weight:600;font-size:50px;fill:rgb(38,40,105);">W<tspan x="498.076px 526.476px " y="1031.29px 1031.29px ">ea</tspan>ve L<tspan x="645.476px 673.876px " y="1031.29px 1031.29px ">ea</tspan>rning C<tspan x="869.476px " y="1031.29px ">e</tspan>nter</text>
                </g>
            </g>
        </g>
    </g>
</svg>
